<svg width="24" height="24" viewBox="0 0 24 24" fill="none" xmlns="http://www.w3.org/2000/svg">
<path d="M11.5337 6.62115C12.0313 6.62115 12.4346 6.2178 12.4346 5.72024C12.4346 5.22269 12.0313 4.81934 11.5337 4.81934C11.0362 4.81934 10.6328 5.22269 10.6328 5.72024C10.6328 6.2178 11.0362 6.62115 11.5337 6.62115Z" fill="#343434"/>
<path d="M19.6857 3.3775C17.5076 1.19951 14.6118 0 11.5316 0C8.4514 0 5.55557 1.19951 3.3775 3.3775C1.19951 5.55557 0 8.4514 0 11.5316C0 14.6118 1.19951 17.5076 3.3775 19.6857C5.55557 21.8637 8.4514 23.0632 11.5316 23.0632C13.6403 23.0632 15.7036 22.4885 17.4984 21.4013C17.9239 21.1435 18.0599 20.5895 17.8021 20.164C17.5443 19.7384 16.9904 19.6024 16.5648 19.8602C15.0516 20.7769 13.3112 21.2614 11.5316 21.2614C6.16657 21.2614 1.80181 16.8966 1.80181 11.5316C1.80181 6.16657 6.16657 1.80181 11.5316 1.80181C16.8966 1.80181 21.2614 6.16657 21.2614 11.5316C21.2614 13.45 20.6909 15.3174 19.6115 16.9318C19.335 17.3454 19.4461 17.9049 19.8598 18.1815C20.2734 18.458 20.8329 18.3469 21.1094 17.9333C22.3876 16.0214 23.0632 13.8077 23.0632 11.5316C23.0632 8.4514 21.8637 5.55557 19.6857 3.3775Z" fill="#343434"/>
<path d="M11.5337 8.42383C11.0361 8.42383 10.6328 8.82716 10.6328 9.32473V17.3428C10.6328 17.8404 11.0361 18.2437 11.5337 18.2437C12.0313 18.2437 12.4346 17.8404 12.4346 17.3428V9.32473C12.4346 8.82716 12.0313 8.42383 11.5337 8.42383Z" fill="#343434"/>
</svg>
