<svg width="43" height="35" viewBox="0 0 43 35" fill="none" xmlns="http://www.w3.org/2000/svg">
<path d="M28.192 19.3627C28.192 18.2109 27.2561 17.2739 26.1057 17.2739H17.5887C16.437 17.2739 15.5 18.2109 15.5 19.3627C15.5 20.5131 16.437 21.449 17.5887 21.449H26.1057C27.2561 21.4489 28.192 20.513 28.192 19.3627ZM26.1057 20.1991H17.5887C17.1261 20.1991 16.7498 19.8239 16.7498 19.3626C16.7498 18.9 17.1262 18.5236 17.5887 18.5236H26.1057C26.5669 18.5236 26.9422 18.9 26.9422 19.3626C26.9422 19.8239 26.5669 20.1991 26.1057 20.1991Z" fill="#1C1C1C"/>
<path d="M42.5295 24.4411C42.3606 23.3954 41.9484 23.0854 40.8955 23.2124C40.5238 23.2572 40.1587 23.3237 39.8011 23.4092V20.9699C39.8011 20.6248 39.5214 20.345 39.1762 20.345C38.831 20.345 38.5513 20.6248 38.5513 20.9699V23.801C36.829 24.4753 35.3583 25.6373 34.3384 27.1515C33.1294 25.3338 31.2517 24.0786 29.0236 23.6046C28.0506 23.3948 27.6175 23.6621 27.3706 24.6267C26.7779 26.9233 27.1133 29.257 28.3151 31.1986C28.7311 31.8705 29.2025 32.459 29.7191 32.9598H15.9287C17.5293 31.7565 18.7264 30.0988 19.3701 28.1579C19.4788 27.8304 19.3014 27.4767 18.9738 27.3681L5.07487 22.7551V15.4118H38.5513V18.0471C38.5513 18.3922 38.831 18.672 39.1762 18.672C39.5213 18.672 39.8011 18.3922 39.8011 18.0471V14.7917C39.8011 14.7901 39.8013 14.7886 39.8013 14.7869C39.8013 14.7853 39.8011 14.7837 39.8011 14.7821V13.5121C39.8011 12.2707 38.7911 11.2608 37.5497 11.2608H37.3377V9.64673C38.3622 9.36469 39.1172 8.42542 39.1172 7.31251V2.41878C39.1172 1.08508 38.031 0 36.696 0H6.93057C5.59554 0 4.50937 1.08508 4.50937 2.41878V7.31243C4.50937 8.42534 5.26434 9.36461 6.28884 9.64664V11.2607H6.07638C4.83499 11.2607 3.82498 12.2706 3.82498 13.512V22.3402L1.29605 21.5009C1.13891 21.4487 0.967266 21.461 0.818956 21.5354C0.670813 21.6098 0.558247 21.7399 0.506089 21.8972C-1.21864 27.097 1.60825 32.7324 6.80776 34.4597C7.8366 34.801 8.89402 34.9703 9.94735 34.9703C11.2387 34.9703 12.5231 34.7145 13.7383 34.2096H31.4334C32.2909 34.6579 33.2218 34.9133 34.1994 34.9573C34.2998 34.9618 34.3999 34.9641 34.5001 34.9641C36.8756 34.964 39.1798 33.6998 40.862 31.4606C42.3533 29.4781 42.9455 26.9847 42.5295 24.4411ZM5.75918 7.31251V2.41878C5.75918 1.77422 6.28468 1.2498 6.93057 1.2498H36.6961C37.342 1.2498 37.8675 1.77422 37.8675 2.41878V7.31243C37.8675 7.95833 37.342 8.48383 36.6961 8.48383H23.3333C22.9881 8.48383 22.7084 8.76362 22.7084 9.10873C22.7084 9.45384 22.9881 9.73363 23.3333 9.73363H36.088V11.2607H7.53865V9.73363H20.4129C20.7581 9.73363 21.0378 9.45384 21.0378 9.10873C21.0378 8.76362 20.7581 8.48383 20.4129 8.48383H6.93057C6.28468 8.48383 5.75918 7.95841 5.75918 7.31251ZM5.07487 13.5121C5.07487 12.9599 5.52421 12.5106 6.07646 12.5106H37.5498C38.1021 12.5106 38.5513 12.9599 38.5513 13.5121V14.1621H5.07487V13.5121ZM15.3176 27.4714C14.8477 28.5116 14.0939 29.3831 13.1326 29.9983L11.1754 26.0966L15.3176 27.4714ZM12.0154 30.5589C10.9467 30.9624 9.79646 31.0457 8.68055 30.8006L10.0571 26.6549L12.0154 30.5589ZM7.49432 30.407C6.43065 29.9249 5.56829 29.153 4.96963 28.2186L8.87077 26.2616L7.49432 30.407ZM4.16543 23.7701L8.30886 25.1453L4.40947 27.1014C4.01912 26.0632 3.91622 24.9108 4.16543 23.7701ZM7.2017 33.2737C2.85555 31.8299 0.405605 27.2624 1.51685 22.8911L2.97387 23.3746C2.12417 26.9449 4.13743 30.6454 7.68329 31.8216C8.42451 32.0675 9.18647 32.1896 9.94527 32.1896C11.0445 32.1896 12.1369 31.9333 13.1479 31.4263C14.6695 30.6632 15.8438 29.4124 16.5084 27.8668L17.9663 28.3507C17.1701 30.2834 15.7214 31.8468 13.8341 32.7934C11.7598 33.8337 9.40427 34.0042 7.2017 33.2737ZM33.0422 33.5113C31.6022 33.1007 30.329 32.0773 29.3777 30.5408C28.3569 28.8918 28.0739 26.9023 28.5808 24.9386C28.581 24.9382 28.5811 24.9377 28.5812 24.9372C28.5957 24.8804 28.7037 24.8143 28.7618 24.8268C30.7467 25.249 32.4016 26.389 33.4236 28.04C33.4965 28.1561 33.5679 28.2809 33.6414 28.4184C33.1918 29.5567 32.8976 31.6163 33.0422 33.5113ZM39.8631 30.7097C38.3762 32.689 36.3586 33.779 34.3158 33.7104C34.1214 31.839 34.433 29.5932 34.8915 28.6771C34.8915 28.6771 34.8916 28.677 34.8917 28.6769C36.0737 26.3216 38.3165 24.7822 41.0453 24.4534C41.1388 24.4421 41.2809 24.5489 41.296 24.6419C41.6565 26.8469 41.1478 29.0018 39.8631 30.7097Z" fill="#1C1C1C"/>
</svg>
