<svg width="36" height="37" viewBox="0 0 36 37" fill="none" xmlns="http://www.w3.org/2000/svg">
<path d="M18 36.2988C27.9253 36.2988 36 28.2241 36 18.2988C36 8.37357 27.9253 0.298828 18 0.298828C8.07474 0.298828 0 8.37357 0 18.2988C0 28.2241 8.07474 36.2988 18 36.2988ZM18 1.90392C27.0403 1.90392 34.3949 9.25852 34.3949 18.2988C34.3949 27.3391 27.0403 34.6937 18 34.6937C8.95969 34.6937 1.6051 27.3391 1.6051 18.2988C1.6051 9.25852 8.95969 1.90392 18 1.90392Z" fill="#1C1C1C"/>
<path d="M13.5637 16.6811C15.3995 16.6811 16.8872 15.1929 16.8872 13.3576C16.8877 11.5219 15.3995 10.0337 13.5637 10.0337C11.728 10.0337 10.2402 11.5219 10.2402 13.3572C10.242 15.192 11.7289 16.6789 13.5637 16.6811ZM13.5637 11.6388C14.5127 11.6388 15.2821 12.4082 15.2821 13.3572C15.2826 14.3066 14.5132 15.076 13.5637 15.076C12.6147 15.076 11.8453 14.3066 11.8453 13.3572C11.8462 12.4086 12.6152 11.6401 13.5637 11.6388Z" fill="#1C1C1C"/>
<path d="M18.9121 23.4421C18.9121 25.2778 20.4003 26.7656 22.2356 26.7656C24.0713 26.7656 25.5596 25.2778 25.5596 23.4421C25.5596 21.6064 24.0713 20.1182 22.2356 20.1182C20.4008 20.1204 18.9143 21.6073 18.9121 23.4421ZM23.9545 23.4421C23.9545 24.3911 23.185 25.1605 22.2356 25.1605C21.2866 25.1605 20.5172 24.3911 20.5172 23.4421C20.5172 22.4931 21.2866 21.7237 22.2356 21.7233C23.1846 21.7246 23.9531 22.4931 23.9545 23.4421Z" fill="#1C1C1C"/>
<path d="M11.8887 27.6686C12.26 27.9109 12.7575 27.8061 12.9994 27.4349L24.3443 10.0395C24.5015 9.79896 24.5185 9.49307 24.3891 9.2369C24.2592 8.98073 24.0026 8.81324 23.716 8.79801C23.4294 8.78278 23.1562 8.92162 22.9999 9.16256L11.6549 26.558C11.4126 26.9297 11.5174 27.4268 11.8887 27.6686Z" fill="#1C1C1C"/>
</svg>
