<svg width="31" height="42" viewBox="0 0 31 42" fill="none" xmlns="http://www.w3.org/2000/svg">
<path d="M29.5909 4.31013H8.00971C7.62536 2.11503 5.53433 0.647 3.33914 1.03134C1.41717 1.36786 0.0112647 3.03142 0 4.98265V37.9361H0.0605265C0.389977 39.8751 2.06825 41.2951 4.03512 41.2987H22.8657C23.2371 41.2987 23.5382 40.9976 23.5382 40.6262V38.6086H29.5909C29.9623 38.6086 30.2634 38.3075 30.2634 37.9361V4.98265C30.2634 4.61125 29.9623 4.31013 29.5909 4.31013ZM1.34504 4.98265C1.34504 3.49697 2.54944 2.29257 4.03512 2.29257C5.5208 2.29257 6.72519 3.49697 6.72519 4.98265V34.2641C5.19765 32.8833 2.87267 32.8833 1.34504 34.2641V4.98265ZM22.1931 39.9537H4.03512C2.54944 39.9537 1.34504 38.7493 1.34504 37.2636C1.34504 35.7779 2.54944 34.5735 4.03512 34.5735C5.5208 34.5735 6.72519 35.7779 6.72519 37.2636V37.9361C6.72519 38.3075 7.02631 38.6086 7.39771 38.6086H22.1931V39.9537ZM28.9183 37.2636H8.07023V5.65517H28.9183V37.2636Z" fill="#1C1C1C"/>
<path d="M26.9005 7H10.0876C9.71616 7 9.41504 7.30112 9.41504 7.67252V14.3977C9.41504 14.7691 9.71616 15.0702 10.0876 15.0702H26.9005C27.2719 15.0702 27.5731 14.7691 27.5731 14.3977V7.67252C27.5731 7.30112 27.2719 7 26.9005 7ZM26.228 13.7252H10.7601V8.34504H26.228V13.7252Z" fill="#1C1C1C"/>
<path d="M18.1578 16.4155H10.0876C9.71616 16.4155 9.41504 16.7166 9.41504 17.088V24.4858C9.41504 24.8572 9.71616 25.1583 10.0876 25.1583H18.1578C18.5292 25.1583 18.8303 24.8572 18.8303 24.4858V17.088C18.8303 16.7166 18.5292 16.4155 18.1578 16.4155ZM17.4853 23.8132H10.7601V17.7606H17.4853V23.8132Z" fill="#1C1C1C"/>
<path d="M26.901 26.5034H18.8307C18.4593 26.5034 18.1582 26.8045 18.1582 27.1759V35.2462C18.1582 35.6176 18.4593 35.9187 18.8307 35.9187H26.901C27.2724 35.9187 27.5735 35.6176 27.5735 35.2462V27.1759C27.5735 26.8045 27.2724 26.5034 26.901 26.5034ZM26.2284 34.5737H19.5032V27.8485H26.2284V34.5737Z" fill="#1C1C1C"/>
<path d="M27.5735 17.0879H20.1758V18.4329H27.5735V17.0879Z" fill="#1C1C1C"/>
<path d="M27.5735 19.7778H20.1758V21.1229H27.5735V19.7778Z" fill="#1C1C1C"/>
<path d="M27.5735 22.4683H20.1758V23.8133H27.5735V22.4683Z" fill="#1C1C1C"/>
<path d="M16.8128 26.5034H9.41504V27.8485H16.8128V26.5034Z" fill="#1C1C1C"/>
<path d="M16.8128 29.1934H9.41504V30.5384H16.8128V29.1934Z" fill="#1C1C1C"/>
<path d="M16.8128 31.8833H9.41504V33.2283H16.8128V31.8833Z" fill="#1C1C1C"/>
<path d="M16.8128 34.5737H9.41504V35.9188H16.8128V34.5737Z" fill="#1C1C1C"/>
</svg>
