<svg width="90" height="77" viewBox="0 0 90 77" fill="none" xmlns="http://www.w3.org/2000/svg">
<path d="M86.5361 0H3.4628C1.78235 0 0.415039 1.36731 0.415039 3.04776V13.775C0.415039 15.4638 3.02741 15.4638 3.02741 13.775V3.04776C3.02741 2.80777 3.22264 2.61237 3.4628 2.61237H86.5361C86.7763 2.61237 86.9715 2.80777 86.9715 3.04776V66.7441C86.9715 66.9841 86.7763 67.1795 86.5361 67.1795H69.7975V64.4616H82.9349C83.6564 64.4616 84.2411 63.8768 84.2411 63.1554V49.4772C84.2411 47.7884 81.6287 47.7884 81.6287 49.4772V61.8492H69.7975V56.0538C69.84 56.0574 69.8828 56.0611 69.923 56.0647C71.0073 56.16 72.356 56.2786 73.2904 55.3425C74.2237 54.4075 74.1056 53.0574 74.0107 51.9725C73.9085 50.8083 74.0185 50.4896 74.9134 49.7458C77.2173 47.83 77.2601 45.7788 74.9134 43.8279C74.0185 43.0835 73.909 42.7652 74.0107 41.6007C74.2663 38.6789 72.9017 37.247 69.923 37.5087C68.7605 37.6108 68.4451 37.5004 67.7039 36.6054C65.7911 34.296 63.7385 34.2534 61.7902 36.6054C61.049 37.5002 60.7338 37.6111 59.5713 37.5087C56.6473 37.2519 55.2225 38.6242 55.4834 41.6007C55.5851 42.7653 55.4756 43.0835 54.5808 43.8279C52.2768 45.7434 52.2342 47.795 54.5808 49.7458C55.4756 50.4901 55.5851 50.8085 55.4834 51.9729C55.2091 55.1023 56.7038 56.3124 59.6963 56.0539V61.8496H8.3704V7.94247H81.6287V42.5109C81.6287 44.1997 84.2411 44.1997 84.2411 42.5109V6.63629C84.2411 5.91492 83.6564 5.3301 82.9349 5.3301H7.06421C6.34268 5.3301 5.75803 5.91492 5.75803 6.63629V63.1554C5.75803 63.8768 6.34268 64.4616 7.06421 64.4616H59.6963V67.1795H3.4628C3.22264 67.1795 3.02741 66.9841 3.02741 66.7441V20.3928C3.02741 18.704 0.415039 18.704 0.415039 20.3928V66.7441C0.415039 68.4245 1.78235 69.7919 3.4628 69.7919H59.6963V75.7045C59.8823 76.778 60.5014 77.1728 61.5533 76.8888L64.7469 75.4034L67.9404 76.8888C68.7306 77.2563 69.7975 76.6755 69.7975 75.7045V69.7919H86.5361C88.2166 69.7919 89.5839 68.4245 89.5839 66.7441V3.04776C89.5839 1.36714 88.2166 0 86.5361 0ZM59.3422 53.4621C58.0347 53.5772 57.9713 53.5072 58.0855 52.2003C58.2611 50.1946 57.7997 49.0242 56.2506 47.7365C55.1907 46.8551 55.1908 46.7177 56.2506 45.8363C57.7997 44.5485 58.2612 43.3782 58.0855 41.3726C57.9713 40.0655 58.0347 39.9962 59.3422 40.1107C61.3482 40.2874 62.517 39.8226 63.8017 38.2714C64.6797 37.2118 64.8139 37.2118 65.6919 38.2714C66.977 39.8226 68.1454 40.2867 70.1514 40.1107C71.4591 39.9955 71.5223 40.0655 71.4081 41.3724C71.2325 43.3782 71.6939 44.5484 73.243 45.8361C74.3028 46.7175 74.3033 46.8553 73.2428 47.7365C71.6937 49.0244 71.2322 50.1942 71.4079 52.2C71.5227 53.5069 71.4589 53.5771 70.1515 53.4621C69.3311 53.39 68.4004 53.3082 67.5811 53.6485C66.7882 53.9778 66.2307 54.6506 65.6917 55.3014C65.4378 55.6079 64.9743 56.1675 64.7465 56.2676C64.5189 56.1675 64.0555 55.6079 63.8016 55.3014C63.2625 54.6507 62.7052 53.9778 61.9121 53.6485C61.0668 53.3907 60.2101 53.3285 59.3422 53.4621ZM65.2977 72.7787C64.9484 72.6162 64.5454 72.6162 64.196 72.7787L62.3087 73.6566V57.5733C62.9285 58.2548 63.6932 58.8875 64.7469 58.8875C65.8005 58.8875 66.5653 58.2549 67.1851 57.5735V73.6566L65.2977 72.7787Z" fill="white"/>
<path d="M17.3546 18.876H62.3826C64.0714 18.876 64.0714 16.2637 62.3826 16.2637H17.3546C15.6656 16.2637 15.6656 18.876 17.3546 18.876Z" fill="white"/>
<path d="M73.9513 25.5142C73.9513 24.7928 73.3666 24.208 72.6451 24.208H17.3545C15.6657 24.208 15.6657 26.8204 17.3545 26.8204H72.6453C73.3666 26.8204 73.9513 26.2356 73.9513 25.5142Z" fill="white"/>
<path d="M50.0742 33.4595C50.0742 32.7381 49.4896 32.1533 48.7681 32.1533H17.3545C15.6657 32.1533 15.6657 34.7657 17.3545 34.7657H48.7681C49.4894 34.7657 50.0742 34.1809 50.0742 33.4595Z" fill="white"/>
<path d="M32.9228 51.6657C32.2107 51.6669 31.4984 51.6678 30.7863 51.6683C29.4162 51.6694 28.6619 51.3042 28.382 49.8513C28.1265 48.5251 26.2136 48.6941 25.863 49.8513C25.7078 50.3639 24.9241 51.8312 24.2395 51.7112C23.8767 51.6476 23.7182 51.088 23.5841 50.7982C23.3231 50.2341 23.1329 49.6362 22.9701 49.0371C22.2825 46.5059 22.1453 43.8631 21.7151 41.2842C21.4657 39.7887 19.1861 40.2115 19.1494 41.6314C19.0324 46.1545 18.2929 50.6155 16.6826 54.8551C16.0851 56.4282 18.6095 57.1085 19.2016 55.5496C19.8225 53.915 20.3154 52.2411 20.6978 50.5424C20.903 51.1614 21.1477 51.7685 21.4464 52.359C22.2092 53.8665 23.7649 54.7584 25.4295 54.0879C26.0236 53.8486 26.5656 53.4303 27.0269 52.9212C28.2627 54.3463 30.1013 54.2817 31.8166 54.2796C34.4023 54.2763 36.988 54.2702 39.5739 54.2631C41.2547 54.2584 41.2579 51.646 39.5739 51.6507C37.3569 51.657 35.1399 51.6621 32.9228 51.6657Z" fill="white"/>
<path d="M64.7473 51.8881C67.5605 51.8881 69.8492 49.5995 69.8492 46.7863C69.8492 43.9732 67.5605 41.6846 64.7473 41.6846C61.9343 41.6846 59.6455 43.9733 59.6455 46.7863C59.6455 49.5993 61.9341 51.8881 64.7473 51.8881ZM64.7473 44.2969C66.12 44.2969 67.2369 45.4138 67.2369 46.7863C67.2369 48.1589 66.12 49.2758 64.7473 49.2758C63.3746 49.2758 62.2579 48.1591 62.2579 46.7863C62.2579 45.4136 63.3746 44.2969 64.7473 44.2969Z" fill="white"/>
</svg>
