<svg width="76" height="90" viewBox="0 0 76 90" fill="none" xmlns="http://www.w3.org/2000/svg">
<path d="M21.116 55.0223C19.8548 55.0223 18.5941 54.7317 17.4445 54.1506L17.4174 54.1369C14.7937 52.8058 12.9315 50.5328 12.3075 47.9001C10.5509 40.4873 17.4297 32.9965 19.5801 30.8771C20.427 30.0423 21.8055 30.0422 22.6524 30.8771C24.8025 32.9964 31.6815 40.4869 29.9248 47.9C29.3009 50.5325 27.4389 52.8055 24.8155 54.1363L24.789 54.1499C23.639 54.7315 22.3773 55.0223 21.116 55.0223ZM21.1164 33.0753C20.0171 34.1938 18.2457 36.1741 16.8185 38.6068C14.928 41.8292 14.2746 44.7512 14.8765 47.2914C15.3209 49.1666 16.6821 50.8035 18.6112 51.7821L18.6365 51.7949C20.1886 52.5798 22.0433 52.5798 23.5967 51.7944L23.6216 51.7817C25.5501 50.8035 26.9114 49.1666 27.3558 47.2916C27.9578 44.7512 27.3044 41.8292 25.4139 38.6068C23.9871 36.1743 22.2156 34.1936 21.1164 33.0753Z" fill="white"/>
<path d="M72.5309 65.4848C72.5309 65.4848 72.5327 59.2451 72.5083 58.6165C72.3984 55.7889 70.3938 54.2642 68.2443 52.8196C65.7642 51.1529 63.2655 49.6129 62.2353 46.6817C62.0248 46.0828 61.5634 45.6066 60.9695 45.3753C60.3676 45.1408 59.6947 45.1809 59.1238 45.4853C58.6393 45.7437 58.1592 46.0136 57.695 46.2746C56.6468 46.8638 55.6568 47.4203 54.6192 47.8564C51.5787 49.1342 48.2418 49.423 45.0149 49.841C43.6068 50.0235 42.1997 50.2258 40.8133 50.5364C40.067 50.7036 39.2151 50.9829 38.3694 51.354L40.4544 27.8116C40.5187 27.0854 39.9821 26.4445 39.2559 26.3802C38.5312 26.3155 37.8889 26.8525 37.8245 27.5787C37.8245 27.5787 35.5694 53.0429 35.5691 53.043C33.9566 54.4083 33.1695 56.4122 33.1911 58.5225C33.196 59.0038 33.214 65.4847 33.214 65.4847C31.8349 65.5109 30.7207 66.6387 30.7207 68.024V75.7171H8.67946L3.33817 9.69504H38.9998L38.2251 21.481C38.1773 22.2084 38.7284 22.837 39.4558 22.8848C40.1821 22.931 40.8117 22.3815 40.8596 21.6541C40.8596 21.6541 42.1002 2.70141 42.0967 2.60279C42.086 1.95416 41.8369 1.32451 41.3929 0.845859C40.9072 0.322383 40.2239 0.0186328 39.5111 0.00298828C39.4923 0.00263672 39.4735 0 39.454 0C39.454 0 2.77778 0 2.77725 0C2.75651 0 2.73612 0.0028125 2.71538 0.00333984C2.00452 0.0203906 1.32354 0.323789 0.838913 0.846035C0.0366472 1.7107 0.13069 2.69016 0.210143 3.77227L6.14188 77.0906V86.5C6.14188 88.4299 7.71196 90 9.64186 90H32.5899C33.1401 90 33.6597 89.8706 34.1229 89.6428C34.7165 89.8726 35.3608 90 36.0345 90H69.7107C72.6406 90 75.0242 87.6162 75.0242 84.6865V68.0242C75.0244 66.6388 73.9101 65.511 72.5309 65.4848ZM2.89257 4.18852L2.77936 2.66238C2.78323 2.65219 2.78815 2.64445 2.79184 2.64023L39.4408 2.64234C39.4465 2.64955 39.4523 2.66607 39.4554 2.6884L39.1279 7.05498H3.12442L2.89257 4.18852ZM25.2317 87.3598H17.0002V84.9605C17.0002 84.5293 17.3511 84.1785 17.7823 84.1785H24.4499C24.881 84.1785 25.2319 84.5293 25.2319 84.9605V87.3598H25.2317ZM27.8718 87.3598V84.9605C27.8718 83.0735 26.3365 81.5384 24.4497 81.5384H17.7821C15.8951 81.5384 14.36 83.0737 14.36 84.9605V87.3598H9.64186C9.16778 87.3598 8.78194 86.9741 8.78194 86.5V78.3573H30.7208V84.6863C30.7208 85.6607 30.9856 86.5739 31.4452 87.3598H27.8718ZM36.9099 55.4026C37.9112 54.334 39.9219 53.4417 41.3906 53.1127C43.053 52.7404 44.7253 52.5328 46.4962 52.3132C47.4478 52.1953 48.4319 52.0731 49.4041 51.9238C51.9318 51.5355 53.9141 51.0166 55.6421 50.2903C56.8189 49.7958 57.9219 49.1757 58.9886 48.5761C59.2992 48.4015 59.6174 48.2228 59.935 48.0487C60.5671 49.5239 61.4866 50.9259 62.6914 51.9935C64.38 53.4897 66.4166 54.7298 68.2603 56.0253C69.2742 56.7378 69.8002 57.5919 69.8659 58.6343H35.8329C35.8324 58.5879 35.8319 58.5415 35.8313 58.4953C35.8176 57.1672 36.1502 56.2134 36.9099 55.4026ZM69.8909 61.2744V65.4824H35.8544V61.2744H69.8909ZM72.3842 84.6865C72.3842 86.1606 71.1848 87.3599 69.7107 87.3599H36.0345C34.5604 87.3599 33.3611 86.1606 33.3611 84.6865V68.1226H72.3842V84.6865Z" fill="white"/>
<path d="M41.2935 83.6816H46.1888C46.9178 83.6816 47.5089 83.0906 47.5089 82.3614C47.5089 81.6325 46.9179 81.0413 46.1888 81.0413H41.2935C41.2504 81.0413 41.2153 81.0063 41.2153 80.9633V74.5181C41.2153 74.475 41.2502 74.4399 41.2935 74.4399H64.4528C64.4959 74.4399 64.5311 74.4748 64.5311 74.5181V80.9633C64.5311 81.0063 64.4961 81.0413 64.4528 81.0413H52.2905C51.5616 81.0413 50.9704 81.6323 50.9704 82.3614C50.9704 83.0904 51.5614 83.6816 52.2905 83.6816H64.4528C65.9517 83.6816 67.1711 82.4622 67.1711 80.9633V74.5181C67.1711 73.0192 65.9517 71.7998 64.4528 71.7998H41.2935C39.7946 71.7998 38.5752 73.0192 38.5752 74.5181V80.9633C38.575 82.4622 39.7944 83.6816 41.2935 83.6816Z" fill="white"/>
</svg>
