<svg width="81" height="89" viewBox="0 0 81 89" fill="none" xmlns="http://www.w3.org/2000/svg">
<path d="M48.9494 16.317C48.9494 14.5567 48.4274 12.836 47.4495 11.3724C46.4716 9.90882 45.0816 8.76809 43.4553 8.09447C41.829 7.42085 40.0395 7.2446 38.3131 7.58801C36.5867 7.93142 35.0009 8.77906 33.7562 10.0237C32.5115 11.2684 31.6638 12.8543 31.3204 14.5807C30.977 16.3071 31.1533 18.0966 31.8269 19.7229C32.5005 21.3491 33.6412 22.7391 35.1048 23.7171C36.5684 24.695 38.2892 25.217 40.0494 25.217C42.409 25.2144 44.6712 24.2758 46.3397 22.6073C48.0082 20.9388 48.9468 18.6766 48.9494 16.317ZM34.1161 16.317C34.1161 15.1435 34.4641 13.9963 35.116 13.0206C35.768 12.0449 36.6947 11.2844 37.7788 10.8353C38.863 10.3862 40.056 10.2687 41.207 10.4977C42.3579 10.7266 43.4151 11.2917 44.2449 12.1215C45.0747 12.9513 45.6398 14.0085 45.8687 15.1595C46.0977 16.3104 45.9802 17.5034 45.5311 18.5876C45.082 19.6718 44.3215 20.5984 43.3458 21.2504C42.3701 21.9023 41.2229 22.2503 40.0494 22.2503C38.4763 22.2486 36.9682 21.6229 35.8559 20.5105C34.7435 19.3982 34.1179 17.8901 34.1161 16.317Z" fill="white"/>
<path d="M39.1994 41.2652C39.4487 41.4398 39.7457 41.5334 40.0501 41.5334C40.3544 41.5334 40.6514 41.4398 40.9008 41.2652C43.7178 39.1899 46.2955 36.8078 48.5861 34.1628C53.6762 28.3092 56.3667 22.1388 56.3667 16.3167C56.3667 11.9892 54.6477 7.83901 51.5877 4.77904C48.5277 1.71907 44.3775 0 40.0501 0C35.7226 0 31.5724 1.71907 28.5124 4.77904C25.4525 7.83901 23.7334 11.9892 23.7334 16.3167C23.7334 22.1388 26.424 28.3092 31.514 34.1628C33.8047 36.8078 36.3823 39.1899 39.1994 41.2652ZM40.0501 2.96667C43.5895 2.97064 46.9828 4.37843 49.4856 6.88118C51.9883 9.38393 53.3961 12.7772 53.4001 16.3167C53.4001 26.9301 43.1126 35.7902 40.0501 38.1927C36.9829 35.7932 26.7001 26.9505 26.7001 16.3167C26.704 12.7772 28.1118 9.38393 30.6146 6.88118C33.1173 4.37843 36.5106 2.97064 40.0501 2.96667Z" fill="white"/>
<path d="M20.3447 77.0557L21.2169 74.2195L24.1842 75.1321L23.312 77.9682L20.3447 77.0557Z" fill="white"/>
<path d="M26.2783 78.875L27.1506 76.0387L30.1179 76.9512L29.2456 79.7875L26.2783 78.875Z" fill="white"/>
<path d="M32.2119 80.7061L33.0841 77.8699L36.0514 78.7825L35.1792 81.6186L32.2119 80.7061Z" fill="white"/>
<path d="M79.053 34.1821L56.803 27.3359L55.9304 30.1715L73.5733 35.5998L40.05 45.9145L6.52667 35.5998L24.1691 30.1715L23.2965 27.3359L1.04649 34.1821C0.743422 34.2755 0.478263 34.4635 0.289921 34.7187C0.101579 34.9738 -3.12366e-05 35.2826 7.20316e-09 35.5998V75.6498C5.38743e-06 75.967 0.101696 76.2758 0.290144 76.531C0.478593 76.7862 0.743874 76.9742 1.04705 77.0675L39.6137 88.9342C39.898 89.0216 40.202 89.0216 40.4863 88.9342L79.053 77.0675C79.3561 76.9742 79.6214 76.7862 79.8099 76.531C79.9983 76.2758 80.1 75.967 80.1 75.6498V35.5998C80.1 35.2826 79.9983 34.9737 79.8099 34.7186C79.6214 34.4634 79.3561 34.2754 79.053 34.1821ZM2.96667 37.6082L38.5667 48.5621V85.508L2.96667 74.5543V37.6082ZM41.5333 85.508V48.5621L77.1333 37.6082V74.5543L41.5333 85.508Z" fill="white"/>
<path d="M58.9072 74.2529L61.8745 73.3404L62.7467 76.1765L59.7794 77.0891L58.9072 74.2529Z" fill="white"/>
<path d="M64.8389 72.4326L67.8062 71.5201L68.6784 74.3564L65.7111 75.2689L64.8389 72.4326Z" fill="white"/>
<path d="M70.7764 70.6016L73.7437 69.689L74.6159 72.5252L71.6486 73.4377L70.7764 70.6016Z" fill="white"/>
<path d="M28.1839 59.9036C28.5773 59.9036 28.9546 59.7473 29.2327 59.4691C29.5109 59.1909 29.6672 58.8137 29.6672 58.4202V51.0036C29.6672 50.6864 29.5655 50.3775 29.377 50.1224C29.1886 49.8672 28.9233 49.6792 28.6201 49.5859L13.7868 45.0217C13.5649 44.9534 13.3301 44.9381 13.1013 44.9771C12.8724 45.0161 12.656 45.1083 12.4692 45.2462C12.2825 45.3842 12.1308 45.564 12.0262 45.7712C11.9216 45.9785 11.8672 46.2074 11.8672 46.4396V53.8562C11.8672 54.1734 11.9689 54.4823 12.1573 54.7374C12.3458 54.9926 12.6111 55.1806 12.9142 55.2739L27.7476 59.8381C27.8889 59.8815 28.036 59.9036 28.1839 59.9036ZM26.7005 56.4118L14.8339 52.7608V48.448L26.7005 52.099V56.4118Z" fill="white"/>
<path d="M68.2336 53.8562V46.4396C68.2336 46.2074 68.1792 45.9785 68.0746 45.7712C67.97 45.564 67.8183 45.3842 67.6316 45.2462C67.4448 45.1083 67.2283 45.0161 66.9995 44.9771C66.7707 44.9381 66.5359 44.9534 66.314 45.0217L51.4806 49.5859C51.1775 49.6792 50.9122 49.8672 50.7237 50.1224C50.5353 50.3775 50.4336 50.6864 50.4336 51.0036V58.4202C50.4336 58.6524 50.488 58.8813 50.5926 59.0886C50.6972 59.2958 50.8489 59.4756 51.0356 59.6136C51.2224 59.7515 51.4389 59.8437 51.6677 59.8827C51.8965 59.9217 52.1313 59.9064 52.3532 59.8381L67.1866 55.2739C67.4897 55.1806 67.755 54.9926 67.9435 54.7374C68.1319 54.4823 68.2336 54.1734 68.2336 53.8562ZM65.2669 52.7608L53.4003 56.4118V52.099L65.2669 48.448V52.7608Z" fill="white"/>
</svg>
