<svg width="77" height="90" viewBox="0 0 77 90" fill="none" xmlns="http://www.w3.org/2000/svg">
<path d="M76.1194 56.5043C75.9627 56.1712 75.6745 55.9188 75.3236 55.8079C74.7265 55.6191 60.5922 51.2368 51.1366 55.6797C45.3639 58.3922 43.0067 66.0633 43.6977 70.1806C42.1784 71.2466 40.8794 72.238 39.831 73.0789C40.3104 70.7391 40.7674 68.1818 41.1654 65.4296C41.8965 60.3748 42.3312 55.2999 42.472 50.2556C42.5911 49.6877 43.4855 45.9154 46.7594 42.3922C47.6113 43.1087 48.7451 43.7543 50.0063 44.2093C51.2524 44.6587 52.4959 44.883 53.6831 44.883C54.9368 44.883 56.1275 44.6327 57.1916 44.1328C63.6828 41.0826 67.5323 31.7618 67.6931 31.3665C67.8316 31.0257 67.8212 30.6424 67.665 30.3093C67.5083 29.9762 67.2201 29.7238 66.8692 29.6129C66.4624 29.4844 56.8294 26.4982 50.3387 29.548C45.934 31.6179 44.4769 37.4208 45.2078 40.1851C44.0888 41.3196 43.1962 42.4866 42.4862 43.6009C42.4597 42.5031 42.4196 41.4077 42.3644 40.3155C42.0721 34.5334 41.3747 28.83 40.2826 23.2537C42.7697 21.6287 45.6603 17.1866 44.5242 12.8544C42.7047 5.9172 34.2384 0.43756 33.8789 0.207637C33.5686 0.00953158 33.1893 -0.0502342 32.8344 0.0431058C32.4784 0.136446 32.1777 0.374278 32.0049 0.699122C31.8043 1.07582 27.1173 10.0052 28.9368 16.9424C30.0716 21.2691 34.7601 23.7204 37.7253 23.9211C38.7245 29.0615 39.3786 34.3135 39.6837 39.6361C38.6624 38.1972 37.5766 36.9179 36.4826 35.7879C37.3342 32.9789 36.4873 27.4698 32.5653 24.9944C26.5001 21.1666 16.5728 22.9413 16.1532 23.0186C15.7913 23.0854 15.4739 23.3004 15.2775 23.6115C15.0812 23.9228 15.0239 24.3018 15.1193 24.6571C15.23 25.0693 17.8998 34.7941 23.9648 38.6217C25.3895 39.521 27.0007 39.8815 28.5799 39.8815C31.031 39.8814 33.4022 39.0116 34.8722 37.9381C36.6888 39.8601 38.4629 42.2257 39.8769 45.0843C39.9455 50.4569 39.6644 55.8873 39.0398 61.31C38.3979 60.3771 37.622 59.4945 36.7149 58.6631C37.3627 54.4141 33.5632 45.6818 26.5389 43.6021C21.9734 42.2504 16.2399 42.5314 9.49728 44.4373C4.5413 45.8381 0.933028 47.6029 0.781856 47.6774C0.451738 47.84 0.20459 48.1331 0.100176 48.4859C-0.00441436 48.8386 0.0435734 49.219 0.231835 49.5353C0.318144 49.6799 2.38393 53.1247 5.77862 56.9981C10.3968 62.2677 15.0536 65.6247 19.6188 66.9765C20.7694 67.3172 21.9024 67.4569 22.9882 67.4567C26.1457 67.4565 28.8979 66.2741 30.48 65.4148C32.5992 64.2638 34.4275 62.7254 35.547 61.2205C36.902 62.6175 37.9164 64.2508 38.3907 66.157C37.8187 69.8769 37.1192 73.3183 36.3985 76.3502C36.394 76.369 36.3892 76.3876 36.3853 76.4065C35.0477 82.0225 33.6396 86.2265 32.8425 88.1828C32.5672 88.8569 32.8905 89.6265 33.5646 89.9017C33.7277 89.9684 33.8965 90 34.0624 90C34.5822 90 35.0749 89.6906 35.2834 89.1796C35.389 88.9211 37.1279 84.6125 38.879 77.3522C39.6104 76.6884 41.6966 74.8592 44.8186 72.6423C46.7698 74.9798 51.3136 77.3038 55.8969 77.3038C57.5704 77.3038 59.2493 76.9938 60.8079 76.2614C70.2635 71.8186 75.9119 58.141 76.1478 57.5609C76.2862 57.2206 76.2758 56.8374 76.1194 56.5043ZM51.4598 31.9346C53.2337 31.1012 55.3555 30.817 57.4259 30.817C60.2683 30.817 63.0127 31.353 64.6218 31.7393C63.3608 34.3066 60.2792 39.769 56.0702 41.7466C54.1351 42.6557 52.0011 42.1259 50.9009 41.729C49.9926 41.4013 49.2504 40.9768 48.7148 40.5787C49.193 40.1962 49.7031 39.824 50.254 39.4697C50.8662 39.0757 51.0432 38.2599 50.6493 37.6477C50.2554 37.0353 49.4394 36.8586 48.8272 37.2524C48.4281 37.509 48.0476 37.7732 47.6825 38.0429C47.8939 36.0643 49.0416 33.0709 51.4598 31.9346ZM25.457 31.071C25.5152 31.0951 29.0702 32.5984 32.9522 36.0708C31.2791 37.0579 27.8116 37.9323 25.3718 36.3924C21.4392 33.9106 19.055 28.1093 18.1204 25.4063C20.963 25.0867 27.2252 24.7425 31.1578 27.2244C33.3589 28.6136 34.1471 31.6045 34.1545 33.5973C30.2124 30.2169 26.7116 28.7363 26.4637 28.634C25.7908 28.3561 25.0198 28.6763 24.7419 29.3492C24.4638 30.0221 24.7841 30.7931 25.457 31.071ZM39.6767 20.3689C38.9196 16.961 38.0166 13.6036 36.9623 10.3103C36.7401 9.61687 35.9978 9.23455 35.3048 9.45673C34.6114 9.67875 34.2292 10.4209 34.4512 11.1144C35.507 14.4125 36.4082 17.7772 37.1591 21.1938C35.2551 20.7401 32.2079 19.0217 31.4872 16.2735C30.3074 11.7755 32.525 5.90858 33.6871 3.29524C35.9826 5.0019 40.7939 9.02519 41.9736 13.5233C42.6564 16.1264 41.0669 18.9481 39.6767 20.3689ZM19.4486 53.9678C23.4724 54.7683 29.3525 56.3909 33.5518 59.4915C32.7839 60.5926 31.2569 61.9929 29.2214 63.0984C27.4539 64.0583 23.9536 65.5108 20.3671 64.4487C12.3627 62.079 5.56434 52.8185 3.29905 49.4331C7.04038 47.8251 17.7741 43.7577 25.7903 46.1311C29.3762 47.1928 31.5222 50.3166 32.4821 52.0841C33.3758 53.7296 33.8849 55.3543 34.0714 56.6261C33.5277 56.2707 32.9541 55.9276 32.3505 55.5967C29.0213 53.7728 24.8536 52.3546 19.9628 51.3817C19.2486 51.2395 18.5544 51.7034 18.4127 52.4176C18.2705 53.1318 18.7344 53.8257 19.4486 53.9678ZM59.6864 73.8756C58.4881 74.4388 57.1924 74.6724 55.8952 74.6724C52.1746 74.6722 48.4471 72.7484 46.9955 71.1518C51.5873 68.1198 57.7873 64.7253 64.904 62.6463C65.6029 62.442 66.0038 61.7101 65.7998 61.0112C65.5957 60.3123 64.8635 59.9113 64.1645 60.1154C57.0455 62.1951 50.8757 65.4762 46.201 68.4952C46.2761 65.3154 48.1363 60.0031 52.2581 58.0663C54.9957 56.7799 58.2598 56.3426 61.434 56.3426C66.2436 56.3426 70.8475 57.3474 73.0973 57.9253C71.4545 61.4121 66.5832 70.635 59.6864 73.8756Z" fill="white"/>
</svg>
