<svg width="29" height="40" viewBox="0 0 29 40" fill="none" xmlns="http://www.w3.org/2000/svg">
<path d="M22.8162 1.7393C20.2812 0.585852 17.3651 0 14.1478 0C10.9072 0 7.98948 0.585852 5.47786 1.74102C5.06178 1.9324 4.87866 2.42673 5.07004 2.84453C5.26314 3.26061 5.75412 3.44373 6.17356 3.25234C8.46712 2.19876 11.1502 1.66448 14.1478 1.66448C17.1255 1.66448 19.8086 2.19876 22.1255 3.25398C22.237 3.30555 22.3552 3.32888 22.47 3.32888C22.7862 3.32888 23.0892 3.14748 23.229 2.84118C23.4187 2.42338 23.234 1.92904 22.8162 1.7393Z" fill="#1E1E1E"/>
<path d="M26.3932 8.57041C23.0194 5.14166 18.7834 3.3291 14.1447 3.3291C9.52425 3.3291 5.29158 5.14166 1.90614 8.56869C1.58321 8.89661 1.58657 9.42418 1.91277 9.74711C2.24069 10.07 2.76662 10.065 3.08954 9.74047C6.15714 6.63473 9.97863 4.99358 14.1447 4.99358C18.3274 4.99358 22.1539 6.63473 25.2064 9.73883C25.3696 9.90361 25.5843 9.98686 25.799 9.98686C26.0087 9.98686 26.2201 9.90697 26.3832 9.74718C26.7111 9.42426 26.7161 8.89833 26.3932 8.57041Z" fill="#1E1E1E"/>
<path d="M14.1447 6.6582C12.9579 6.6582 11.7795 6.80465 10.641 7.09426C10.195 7.20746 9.92535 7.66014 10.0385 8.10625C10.1517 8.55229 10.6077 8.81866 11.0505 8.70709C12.0541 8.45243 13.0961 8.3226 14.1447 8.3226C21.0288 8.3226 26.6279 13.9217 26.6279 20.8058C26.6279 21.2652 27.0007 21.638 27.4601 21.638C27.9195 21.638 28.2924 21.2652 28.2924 20.8058C28.2924 13.0047 21.9459 6.6582 14.1447 6.6582Z" fill="#1E1E1E"/>
<path d="M8.17908 8.86822C7.94939 8.47375 7.44171 8.33893 7.04061 8.57026C5.97868 9.19106 4.99173 9.95839 4.1112 10.8505C1.51968 13.4704 0.060008 17.0006 8.86794e-05 20.7938C-0.00654302 21.2532 0.359605 21.631 0.820625 21.6377C0.823979 21.6377 0.828973 21.6377 0.833966 21.6377C1.28672 21.6377 1.65786 21.2748 1.66449 20.8188C1.71778 17.4567 3.00604 14.3325 5.2946 12.019C6.07355 11.23 6.94402 10.5543 7.88112 10.0067C8.27723 9.77535 8.41041 9.26604 8.17908 8.86822Z" fill="#1E1E1E"/>
<path d="M22.2998 13.703C20.2392 11.3411 17.2666 9.98633 14.1441 9.98633C11.2414 9.98633 8.52002 11.1248 6.4794 13.1904C4.4455 15.2443 3.327 18.0222 3.327 21.0532C3.332 22.8441 2.77275 24.9912 1.77074 27.0534L1.30301 27.8857C1.07831 28.2868 1.21976 28.7928 1.62094 29.0192C1.75077 29.0924 1.89058 29.1274 2.02875 29.1274C2.32 29.1274 2.60298 28.9742 2.75442 28.7029L3.2454 27.8275C4.39549 25.4607 4.99804 23.1172 4.99141 21.01C4.99141 18.4618 5.93849 16.1016 7.66117 14.3606C9.38885 12.6129 11.6891 11.6509 14.1441 11.6509C16.7855 11.6509 19.3021 12.7977 21.0448 14.7983C21.346 15.1445 21.8737 15.1794 22.2199 14.8782C22.5661 14.5752 22.6011 14.0492 22.2998 13.703Z" fill="#1E1E1E"/>
<path d="M26.5107 30.3988L25.572 27.3279C25.0443 24.9195 24.9994 22.6209 24.9711 21.2461L24.9628 20.8051C24.9628 19.5717 24.7547 18.36 24.3453 17.2033C24.1921 16.7705 23.7211 16.5441 23.2833 16.6973C22.8506 16.8505 22.6242 17.3248 22.7774 17.7592C23.1236 18.7363 23.2983 19.7615 23.2983 20.8267L23.3083 21.2795C23.3383 22.7142 23.3848 25.116 23.9641 27.7474L24.9161 30.8832C25.0244 31.2427 25.3555 31.4724 25.7134 31.4724C25.7933 31.4724 25.8749 31.4608 25.9565 31.4375C26.3959 31.3026 26.6439 30.8398 26.5107 30.3988Z" fill="#1E1E1E"/>
<path d="M24.083 34.2439L23.309 31.7656C21.9358 27.478 21.6795 22.6579 21.6346 20.8053C21.6346 16.6759 18.2741 13.3154 14.1447 13.3154C10.0152 13.3154 6.6564 16.7275 6.6564 20.9502C6.65976 21.8256 6.49826 26.4511 2.98299 31.5209C2.71998 31.8988 2.81485 32.4181 3.19107 32.6794C3.5672 32.9407 4.08822 32.8475 4.34951 32.4713C8.05452 27.1301 8.3258 22.2983 8.3208 20.9235C8.3208 17.6462 10.9339 14.9815 14.1446 14.9815C17.3569 14.9815 19.9701 17.5946 19.9701 20.827C20.03 23.2437 20.338 27.944 21.7228 32.2699L22.4917 34.7382C22.6032 35.0944 22.9311 35.3225 23.2873 35.3225C23.3688 35.3225 23.4521 35.3108 23.5353 35.2859C23.9747 35.1477 24.2194 34.6817 24.083 34.2439Z" fill="#1E1E1E"/>
<path d="M18.3054 20.8056C18.3054 18.512 16.4379 16.6445 14.1444 16.6445C11.8508 16.6445 9.98331 18.512 9.98331 20.8372C9.9933 21.1119 10.178 27.6497 4.8918 34.5288C4.61218 34.8933 4.68045 35.416 5.04496 35.6956C5.4111 35.9769 5.93212 35.9053 6.21175 35.5425C11.8591 28.1924 11.6561 21.0736 11.6461 20.8057C11.6461 19.4291 12.7662 18.309 14.1427 18.309C15.5192 18.309 16.6394 19.4291 16.641 20.824C16.6643 21.7561 16.6693 30.1648 10.1713 38.6067C9.89172 38.9712 9.95827 39.4939 10.3228 39.7735C10.4759 39.89 10.654 39.9466 10.8305 39.9466C11.0801 39.9466 11.3264 39.8351 11.4896 39.622C18.3486 30.7139 18.3286 21.7759 18.3054 20.8056Z" fill="#1E1E1E"/>
<path d="M14.9732 20.7691C14.9515 20.3114 14.592 19.9469 14.106 19.9752C13.6482 19.9952 13.2921 20.383 13.3104 20.8424C13.3104 20.854 13.357 22.0724 13.0474 23.9981C12.9758 24.4525 13.2854 24.8803 13.7381 24.9535C13.783 24.9601 13.828 24.9635 13.8713 24.9635C14.2724 24.9635 14.6269 24.6722 14.6918 24.2644C15.0314 22.1523 14.9765 20.824 14.9732 20.7691Z" fill="#1E1E1E"/>
<path d="M13.3407 26.6891C12.898 26.5576 12.437 26.8106 12.3055 27.25C11.2653 30.7636 9.53423 34.0492 7.16406 37.0185C6.8778 37.378 6.93601 37.9006 7.29552 38.1885C7.44868 38.3117 7.63171 38.3699 7.81483 38.3699C8.0595 38.3699 8.30081 38.2634 8.46559 38.057C10.9706 34.9212 12.7998 31.4442 13.9033 27.7242C14.0332 27.2833 13.7819 26.8189 13.3407 26.6891Z" fill="#1E1E1E"/>
<path d="M21.4064 36.6607L20.4027 33.4733C20.0033 32.2783 19.6304 31.015 19.6288 31.01C19.5289 30.6721 19.2293 30.4341 18.8781 30.4141C18.5186 30.3892 18.2007 30.5955 18.0642 30.9201C18.0459 30.9634 16.1917 35.3225 14.0662 38.668C13.8199 39.0559 13.9348 39.5702 14.3225 39.8165C14.4607 39.9047 14.6155 39.9463 14.7686 39.9463C15.0449 39.9463 15.3129 39.8099 15.471 39.5602C16.7576 37.5346 17.9261 35.2061 18.6883 33.5866C18.7316 33.7198 18.7765 33.8546 18.8215 33.9877L19.8185 37.1601C19.9567 37.5978 20.4193 37.8442 20.8621 37.7043C21.2998 37.5661 21.5445 37.1001 21.4064 36.6607Z" fill="#1E1E1E"/>
</svg>
